<svg xmlns="http://www.w3.org/2000/svg" width="114px" height="116px" viewBox="0 0 114 116"><path style="fill:#000000" d="M 56.84375 0 C 25.45158 0 0 25.93577 0 57.9375 C 0 89.93923 25.45158 115.875 56.84375 115.875 C 88.23592 115.875 113.6875 89.93923 113.6875 57.9375 C 113.6875 25.93577 88.23592 0 56.84375 0 z M 35.125 21.375 C 35.961423 21.359072 36.788566 21.55243 37.53125 21.9375 L 96.09375 52.8125 C 97.709326 53.662584 98.74228 55.29984 98.78125 57.125 C 98.820221 58.950161 97.859068 60.67548 96.28125 61.59375 L 39.96875 94.1875 C 38.444795 95.069592 36.572902 95.069537 35.03125 94.21875 C 33.489597 93.367962 32.50359 91.790842 32.4375 90.03125 L 30.1875 26.5625 C 30.142395 25.216533 30.665269 23.881743 31.59375 22.90625 C 32.522231 21.930757 33.778447 21.39638 35.125 21.375 z"/></svg>