<?xml version="1.0" standalone="no"?>
<!DOCTYPE svg PUBLIC "-//W3C//DTD SVG 20010904//EN"
 "http://www.w3.org/TR/2001/REC-SVG-20010904/DTD/svg10.dtd">
<svg version="1.0" xmlns="http://www.w3.org/2000/svg"
 width="500.000000pt" height="500.000000pt" viewBox="0 0 500.000000 500.000000"
 preserveAspectRatio="xMidYMid meet">
<metadata>
Created by potrace 1.14, written by Peter Selinger 2001-2017
</metadata>
<g transform="translate(0.000000,500.000000) scale(0.100000,-0.100000)"
fill="#000000" stroke="none">
<path d="M3119 4601 c-211 -67 -348 -295 -309 -512 16 -87 60 -177 120 -242
l49 -54 -90 -184 c-50 -101 -92 -185 -93 -186 -1 -1 -38 8 -81 20 -67 18 -106
21 -235 21 -139 -1 -164 -3 -243 -27 -269 -82 -474 -249 -602 -490 -45 -84
-88 -215 -100 -302 -13 -94 12 -85 -244 -85 l-228 0 -23 63 c-41 113 -120 201
-228 256 -222 112 -489 16 -600 -216 -36 -77 -37 -80 -37 -199 0 -118 0 -121
37 -195 48 -98 119 -169 217 -217 73 -36 77 -37 190 -37 110 0 119 2 182 32
117 58 197 145 241 265 l21 58 232 0 233 0 12 -67 c52 -302 266 -576 552 -707
151 -70 205 -81 393 -81 150 0 179 3 245 23 41 13 80 24 87 25 7 1 61 -81 121
-183 l109 -185 -44 -49 c-224 -251 -113 -656 206 -750 281 -83 571 140 571
439 0 182 -97 336 -260 414 -73 35 -78 36 -192 36 l-116 0 -110 187 -109 186
52 36 c28 20 83 69 122 109 374 385 369 1002 -11 1383 -39 39 -97 88 -128 109
-32 21 -58 41 -58 46 0 4 40 89 89 189 l90 182 108 1 c102 2 112 4 183 38 334
160 350 624 29 812 -95 56 -243 72 -350 38z m-454 -1815 c481 -271 481 -271
459 -333 -7 -23 -44 -47 -189 -126 -746 -407 -752 -410 -793 -369 -17 17 -19
46 -25 313 -10 450 -9 707 4 732 36 67 49 62 544 -217z"/>
</g>
</svg>
